<svg id="Capa_1" data-name="Capa 1" xmlns="http://www.w3.org/2000/svg" xmlns:xlink="http://www.w3.org/1999/xlink" width="1352" height="588" viewBox="0 0 1352 588"><defs><radialGradient id="Degradado_sin_nombre_85" cx="676" cy="294" r="521.25" gradientUnits="userSpaceOnUse"><stop offset="0" stop-color="#cf7251"/><stop offset="0.32" stop-color="#ce6c51"/><stop offset="0.73" stop-color="#ca5c51"/><stop offset="1" stop-color="#c64e51"/></radialGradient></defs><title>formulario-bg</title><rect width="1352" height="588" style="fill:url(#Degradado_sin_nombre_85)"/><path d="M1347.63,524.54l-22.74-11.08c-31.34,22.79-61.87,45-92.57,67.13,0,0-2.63-1.17-2.44-1.09L1310,515.05c-10.31-1.73-17.1-2.47-23.28-4-5.64-1.4-10.62-3.67-17.61-6.17-61.35-.08-124-7.95-191.7-6.64,4.46,5.14,6.35,8.59,10,11.27,19.18,14.25,39.64,28,57.92,42.58,10.53,8.41,17.78,18.18,24.21,28.71-2.43-.7-5.69-1-7.15-2.17-16.61-12.77-33.16-25.58-49.28-38.55-10.12-8.15-19.3-16.67-29.28-24.87-3.39-2.78-7.93-5.1-14.79-9.42-12.93,25.79-3.84,50.5-15.25,73.74-5.14-23.36,3.73-46.82,2.19-70.19l-4.37-.08-76.16,73.38-5.84-4,79.65-77.05-3.73-3.12-48.2,7.74-.08-.34-55.86,8-130.2,16.66c1.81,16.92,3.53,32.88,5.24,48.85l-4.86.34q-4.59-18.69-9.17-37.4l-4.61-.33-48.93,40.38L742.44,580l57.2-49.37L604.27,509.22l39.18,69.91-5.61,1.57c-2.66-2.76-6.12-5.38-7.85-8.33-9.22-15.72-17.91-31.54-27-47.28-1.54-2.65-4.35-5.05-7.57-8.7-23,21-31.07,45-55.24,64.07l-3.83-1,51.35-69.07L344.08,540.47l20.27,38.23L359,580c-7.62-11-15.25-22.08-23.65-34.26-18.73,11.63-24,27.3-49.69,33.92,8.17-7.15,15.94-14.46,24.62-21.39,7.77-6.21,12.28-12.17,2.07-19.11L4.37,511.23v-8.87c29.72,6.3,59.85,11.19,81.25,9.7l233.6,23.35c-27.08-21.34-58-37.64-87.12-49.22l-76.36-45.53c-10.14,4.17-17.74,8.26-26.69,10.76-16.26,4.53-25.31,16.28-46.88,15.34,6.55-3.39,12.77-7,19.75-10.11,8.08-3.55,17.11-6.5,16.73-16-38.23-.88-76.29-.22-114.28-.43V435.8l144.54-.32c-2-3.69-2.37-5.18-3.52-6.43-22.17-24-44.26-48-66.91-71.89-2.69-2.84-8.54-4.7-13.27-7.19L13.46,371.28l2.09,1.08L4.37,382.55V369.23L54.89,347.3l-1.41-3.71L4.37,336v-4.43c15.51,0,30.88,7.63,49,.28l-49-49.09v-11.1c10.33,10,20.91,19.95,30.89,30.08,7.83,7.94,14.49,16.27,22.59,24.11,2.06,2,7.67,2.76,11.94,4.18C93.19,296.59,166.53,142.3,166,134.86c8.06-17,13.61-28.76,19.17-40.49l-5.84-2.16L94.43,126.62c-8.55,2.19-18.55,3.15-18.21,11L59.93,138.8l-3.8,6.66-3.19-1.91c-11.34,4.42-22.56,9-34.1,13.22-4.45,1.64-9.63,2.62-14.47,3.91V154c2.42-.49,5.16-.7,7.2-1.51,48.36-19.1,96.75-38.17,144.81-57.5,8.33-3.35,15.18-7.9,26.06-13.67l-162-24-8.58,8.39L4.37,54.18V49.74l25.13,1c4.93,1.83,7.69,3.49,11,4,17.93,2.64,36.17,4.65,54,7.54,24,3.9,47.73,8.52,71.73,12.53,4.15.69,9.06-.12,13.63-.24L85.66,5.37H97.27c15.22,10.78,30.5,21.54,45.63,32.37,5.09,3.64,9.63,7.54,14.7,11.19,12.51,9,25.18,18,39.15,27.94,6.68-4.72,12.32-8.17,16.91-12,15.15-12.74,30.2-25.53,44.72-38.51,7.56-6.76,13.93-13.95,20.83-20.95h11.62c-3.3,3.56-6.05,7.33-10,10.63-15.26,12.75-31.24,25.21-46.29,38-9.83,8.39-18.51,17.22-29.4,27.45,22.25,2.54,39,11.89,62.56,7.46,5.74,7.31,14.44,10.73,28.21,5.18l5.27,6.29,127.26,26.93,4-2.55c-6-7.83-12-15.66-17.45-22.83-3.92-7.84-6.33-15.46-11.47-22.43-17.78-24.09-29.67-49.26-43-74.17h7.74L433,112.53l19.35-2.6C480.18,74.6,507.44,40,534.71,5.37h7.74l-9.66,11.51c1.19,3.72,2.19,6.85,3.18,10l-3.71-.74c-6.07,5.62-13.16,11-18,16.92-7.56,9.33-13.1,19.2-20.4,28.61-9.81,12.66-20.54,25.08-30.75,37.64-3,3.73-5.66,7.57-8.48,11.36l4.11,2.81c71.85-17.59,139.32-40.32,210.3-59.76-6.52-12.2-12.3-22.68-17.7-33.22-4.28-8.33-8.11-16.74-12.14-25.11H647c8,17,14.21,34.36,34,50.9,14.88-13.16,27.79-24,39.6-35.28,5-4.8,7.77-10.39,11.55-15.62h15.48c-2.76,4-4.47,8.41-8.49,12C727.72,27.41,715.39,37.15,703.4,47c-6.78,5.59-13.59,11.16-20,16.43,41.88,27,85.94,50.05,135.64,72.69.79-5,1.8-7.77,1.58-10.54-.93-11.76-2.29-23.52-3.36-35.28q-3.9-42.48-7.69-84.95h7.74A1098.66,1098.66,0,0,0,832.9,132.28c3-2,2.54-5.07,4.61-5.84,18.36-6.8,23.93-18.56,34.33-28.39q20.37-19.27,39.85-38.84c17.78-17.88,35.15-35.89,52.7-53.84H976c.16,1.7,1.62,3.92.28,5-9,7.5-19.24,14.52-27.75,22.19-12.38,11.16-23.89,22.64-35.28,34.15-7.43,7.5-13.5,15.44-21,22.9-17.73,17.55-36,34.93-56.07,54.36l186.61-13.24c17.16-8.08,20.09-17.35,19.19-27.83-.85-9.93.49-19.91.59-29.86.14-14.29,0-28.57,0-43.08,10.53-7.25,5.28-16.28,7-24.63h7.74l-9.36,117,3.56.66,35.86-26.71c16.16.09,15.55-12.19,28.41-16,4.73-1.41,6.43-6.18,9.61-9.52,27.79-8.33,42.15-24.8,63.17-35.41,6.15-14.65-10.73-21.66-22.86-30h23.23c-5.11,7.47-2.31,11.05,15.36,18.4l23.35-18.4h7.74c-4.32,8.11-21.85,12.78-18.56,24.48,39.67,1.45,74.76,16.11,117.35,12.52l13.47,2.93v8.88q-36.2-5.64-72.41-11.27c-20.72-3.22-41.41-6.56-66.66-9,19.41,51.71,37.85,100.8,57.4,152.88l28.48-12.61c11.84-1.22,26.43-4.88,36.81-13.54,3-2.46,10.79-3,16.38-4.44v6.65c-29.68,8.32-56.46,18.51-72,35.28,20.65,21.93,40.22,43,60.35,63.78,2.21,2.27,7.7,3.51,11.66,5.22v13.32l-82.94-82.82-27.36,14.13a26.2,26.2,0,0,1,2,3.35,29.79,29.79,0,0,1,1,3.93c-30,10.74-52.46,24.47-67.47,43.48-22.36,4.37-33.26,17.22-49.64,30.45l181.42,29.5c8.25,5,26.53,4.38,42.94,6.79v4.44c-17-2-34.36-3.28-51-6.07-44.44-7.46-88.48-15.7-132.85-23.31-12.3-2.12-25.17-3.16-40.81-5.05,5.69,9.7,9.83,17.4,14.72,24.95,7.74,12,16.58,23.69,23.88,35.73,9.65,15.93,17.77,32.16,27.56,48.05,4.5,7.3,11.4,14.1,17.47,21.45,10.54-3.29,18.45-5,24.71-7.86,20.49-9.4,39.76-19.7,60.72-28.73,13.49-5.81,29.11-10,43.77-14.91-6.91,4.68-12.65,10.22-20.93,13.88-26.74,11.8-54.45,22.88-81.67,34.33-2.43,1-4.06,2.67-8.86,5.94,12.45,1.4,22.15,3.64,31.62,3.36,30.59-.88,61.1-2.69,91.63-4.14v8.87H1217.37l99.09,59,31.17-3.52ZM453.85,484.47,471.51,471c-32.2-3.58-54.26-18.06-86-19l-34.11,68.54,4.71,2c35.91-4.43,51.54-25.13,80.3-35.41l16.85-2.27-73.41,38.93,2.54,3.54c7.09.34,14.54,1.66,21.21.85,51-6.18,101.87-12.74,152.71-19.35,3.72-.49,6.89-2.37,12.65-4.44-25.2-11-49.31-20-76-26.45-4.73-1.14-11.77-.09-17.2.93C468.15,480.22,461.11,482.54,453.85,484.47Zm695.91-26.34c-1.15,1.29-1.72,3-3.55,3.8-15.52,6.42-31.35,12.6-46.89,19-6,2.45-11.41,5.3-17.09,8l1.32,3.28c73.47,3.08,146.81,7.08,221,8.69-29.82-18.76-57.83-37.53-95.66-53.28-.38-.59-2.15-3.44-5.15-8.25-9,3.44-15.39,6.14-22.2,8.46-10.24,3.48-20.75,6.69-31.14,10l45.27-24c-11.55-17.78-24-36.87-36.39-56l-.54.19-14.6-25.44.35-.08-26.72-46.15c-17.06,56.55-33.81,112.87-45.38,171.16,9.94,0,17.55,1.34,21.8-.26,11.71-4.4,22-10,33.38-15.41ZM732.35,280.38V256.11l3.92.09,4,4.51,20.19-29.42,1.62.34L808.6,166.1l-4.48-1.55c-26.92,18.31-59.07,34-83.51,53.83l-186.43,115,3.6,3.5,147.45-25.77c17.6.87,21.84-.84,32.42-15.46,3.78-5.23,9.45-10,14.26-15l-13.77,29.55L759.88,333l.7-.4,117.65,63.72,4.72-1.43C864.11,317,845.27,239.1,826,159.23c-4,2.75-6.06,3.64-6.9,4.82-26.28,36.85-52.39,73.74-78.78,110.57C738.71,276.8,735,278.47,732.35,280.38ZM763.11,449c.37-1.07.11-2.75,1.22-3.14,21.78-7.54,43.82-14.83,65.58-22.39,14.27-5,31.48-7.54,44.66-17.27l-350.5-58c-1,15.08,67,143.39,80.85,152.22,6.82-2.35,13.7-5,21-7.21,19.79-5.9,39.76-11.6,59.67-17.39-1.3,1.56-1.86,3.83-4,4.56C658.93,488.05,636,495.49,613.17,503l1.25,2.57,26.71-2.05c-.21,1.5-.44,3.11-.73,5.15,28.07,2.74,55.53,4.84,82.5,8.23s53.22,7.86,83.2,6.68q36.28-53.78,72.36-107.27L874.77,415c-3.27.89-6.66,1.67-9.8,2.7-28.58,9.4-57.05,18.91-85.75,28.18C774.35,447.41,768.5,448,763.11,449ZM964,369.28c-5.38,3.62-10.21,7.57-16.24,10.79-16.32,8.72-33.13,17.12-51,26.28L939,426.47l.23-.24L1051.3,484.8c5.3-5.28,10.94-8.89,12.71-13.05,3.8-8.89,5.91-18,8.17-27.12,7.25-29.17,14.6-58.34,21.11-87.57,1.63-7.35.24-14.94.24-24,9.51-4.37,15.41-17.67,10.54-29.81l-15.72,3.7,18.19-13.52L862.27,168.3l-1.45,1-15.41-9.8-4.91.83c-1.11,3.69-3.83,7.49-3.09,11.06,5,24.07,10.53,48.1,16.28,72.12,5.1,21.29,10.88,42.53,16,63.81,6.12,25.16,11.8,50.35,18,75.51.86,3.53,3.42,6.93,6.3,12.54,12.18-4.13,22.52-7.33,32.29-11C939.1,379.54,951.44,374.33,964,369.28ZM79.11,335.14l4.68,2.68,23.66-11.21a429.77,429.77,0,0,0,50.75-12.05c22.57-6.65,44.77-13.72,67.16-20.59,28.8-8.83,57.63-17.64,87.95-26.92-4.21-5.19-7.94-8.92-10.37-12.9-12.06-19.77-23.55-39.65-35.87-59.36-1.52-2.43-6.77-4.1-9.77-5.81-3.11-18.75-17.59-35.38-33.39-56,.83-11.09-13.72-28.78-31-31.51-1.59,3.89-3.35,7.75-4.72,11.66-2.09,6-2.94,12.14-6,17.92-8.4,15.75-18.23,31.25-26.29,47.06-2.25,4.41-.34,9.53-.34,15.27-5.06,5.29-13.51,11.32-16.93,18.18C118.14,252.64,98.82,293.92,79.11,335.14ZM821.27,147.9c-13.28-7.55-23.2-13.42-33.53-19-30.31-16.47-60.59-33-91.38-49.13-5.07-2.66-12.64-3.76-20.9-6.1l-29.93,52.85,5.4,3.74-11.56,7.52c-12.09,23.91-35.48,44.66-36.61,69.81-10.63,3.77-71.7,105.62-64.57,116l4.26-9.41h10.12ZM450.7,131c0,6.4-1,13.14.21,19.73,2.49,13.38,14.26,25.51,14.16,39.57-.07,9.64,7.93,19.21,11,28.95,7.26,22.75,13.53,45.6,20.63,68.36,3.1,9.94,7.25,19.77,11,29.88l7.1-2.74v9.94l3.83.52L665.24,74l-4.71-2L512.28,115.47l-.1-.46ZM177.2,435.55l201.36,7.72L317.88,277l-4.07-.09-68.14,74.44c-2.07,3.2-7.15,5.63-10.19,8.71-20.53,20.84-40.58,41.84-60.89,62.75C170.57,427,167.71,430.91,177.2,435.55ZM316.91,260l4.92.24c32.32-43.37,79.13-82.68,108.64-127.74L216.17,88.59c0,5.29-1.73,9.67.35,13.35,4.89,8.69,11.95,17,17.48,25.55,7.34,11.37,13.82,22.92,21.1,34.31,11.18,17.52,22.62,35,34.14,52.43C296,224.4,303.05,234.49,310,244.61l2.42-.61Q314.65,252,316.91,260Zm723-125.24L843.46,148.26l-1.43,3,257.79,131.57,4.53-1.33-38-83.65-.77.11-15.82-33.8C1047.35,157.07,1043.9,146.77,1039.88,134.73ZM323.71,267.38l178.06,69.8,3.94-2.05L494.61,312c-4.6-14.56-7.68-29.36-12.11-44-3.06-10.15-8.62-20-12-30.16-8.73-26.43-16.89-52.93-25.21-79.41-1.48-4.73-4.44-8.47-17.34-8.36-3.05,5.27-6.34,10.93-9.81,16.91-24,14.37-32.36,34.78-52.16,51.1l4.16,7.1C342.47,235.18,341.06,253.2,323.71,267.38ZM1050,130.55c67.33,18.7,130,37.24,195.41,52.64,8.07-12.38-20-99-42.71-137l-3.19,4.2-13.66-6.17C1138.29,71.69,1097.25,101.93,1050,130.55Zm70.13,152.18,6.54.58c38.86-31.13,88.75-57.26,127-91.6L1049,136.85c8.35,18.6,15.49,34.21,22.34,49.86,7.78,17.8,14.72,35.73,23.17,53.42,4.91,10.29,2.7,22.49,20.32,28.88C1116.78,274.07,1118.44,278.4,1120.1,282.73ZM506,345.08l-176-70L326,276.82c20,53.45,40,106.89,60.78,162.4ZM280.45,282.72c-31.93,9.92-61.85,19.28-91.87,28.53q-45.71,14.08-91.57,28l1.48,1.58L76.6,343.94,87,352.71c17.3,28.28,45,50.75,70.1,75.17,4.59-2.85,7.86-4.22,9.64-6.07,14.55-15.08,28.88-30.22,43.16-45.39C225.42,360,241,343.57,256.09,327c5.73-6.31,10.1-13,15.26-19.77l3.09,1,10.33-9C283.48,294.33,282.29,289.74,280.45,282.72ZM814.88,524.37c47.68-3,214.16-28.22,228.12-35.33-5.1-3.65-9.62-7.85-15.73-11.08-11.62-6.13-23.87-11.9-36.36-17.46-11.94-5.3-24.51-10.13-39.08-16.1,0,.12.27-1.94.47-3.43l-59.61-30.41ZM542.48,341c22.18,11.71,42.95,15.79,69.09,11.23l20,9,19.62.78c21.9,7,43.34,10.81,62.85,10.65,49,12.23,97.6,17.38,144.79,25.3l2.27-2.91L710,312.92ZM176,441.39c26.45,15.3,46.22,34.36,81.82,43.77.81,8.56,5.66,11.35,26.33,16.39,10.63,14.1,30,20.24,47.57,31,5.47-7.11,10.41-12.08,13.2-17.43,9.7-18.6,18.8-37.3,27.76-56,1.56-3.25,1.33-6.78,2.19-11.76l-143.38-3c-10.09-5-25.07-4.78-39.18.86ZM580.9,497l5-2.42L548.3,424c-2.57-16.56-20.88-37.22-33.21-61.3-3.57,4-5.88,5.56-6.26,7.23-3.95,17.12-7.36,34.28-11.41,51.4-2.35,9.94-4.7,19.93-8.66,29.69-5.42,13.35-2.08,20.83,13,24.93,9.22,2.5,18.1,5.4,27.37,7.84C546.31,488.33,563.64,492.64,580.9,497ZM502.45,360.86l-5.6-1.2c-4,3-8,6.07-11.87,9.14-12.34,9.71-24.69,19.43-36.92,29.19-3.73,3-9.77,6-10.08,9.18-.87,8.81-10.63,12.81-17.2,14.59l-31.14,22.52,87,23.92C484.58,431.06,496,396.15,502.45,360.86Z" style="fill:#c64e51"/><path d="M4.37,520.11l7.31.89,78.51,59-3.4,2.1c-5-2.63-10.82-4.92-15-7.94-18.9-13.7-37.19-27.69-56.12-41.38C13.15,531,8.2,530.23,4.37,529Z" style="fill:#c64e51"/><path d="M4.37,493.48l35.38-14-1-.71,42.43-11.69c-11,10.49-30.07,15.22-47,21.4-9.56,3.49-19.86,6.31-29.83,9.43Z" style="fill:#c64e51"/><path d="M1293.44,5.37c-13.69,8.84-31.94,2.59-47.75,4.51-1.52.18-4.27-2.93-6.45-4.51Z" style="fill:#c64e51"/><path d="M1087.57,307.42c-9.25,5.85-17.7,12.21-27.91,17.45-23.29,12-47.29,23.46-71.35,34.92-7.24,3.45-15.62,6.11-23.48,9.13,3.92-2.75,7.73-5.55,11.78-8.24a240,240,0,0,1,23.06-13.88c16-7.51,31.82-15.15,48.08-22.47C1060.73,318.48,1074.27,313,1087.57,307.42Z" style="fill:#c64e51"/><path d="M762.54,449.3c-11.8,5.65-23.21,11.29-36.91,15.83-12.82,4.25-23.5,10.27-39.46,10.42,11-4.88,21.83-9.86,33-14.59,7.26-3.08,15-5.8,20.94-10.29Z" style="fill:#c64e51"/></svg>