<svg id="Capa_1" data-name="Capa 1" xmlns="http://www.w3.org/2000/svg" xmlns:xlink="http://www.w3.org/1999/xlink" width="27.45cm" height="11.94cm" viewBox="0 0 778 338.36"><defs><radialGradient id="Degradado_sin_nombre_13" cx="389" cy="1042.82" r="299.95" gradientTransform="matrix(1, 0, 0, -1, 0, 1212)" gradientUnits="userSpaceOnUse"><stop offset="0" stop-color="#1e8e42"/><stop offset="0.59" stop-color="#2a783b"/><stop offset="1" stop-color="#336535"/></radialGradient></defs><title>Sin título-1</title><rect width="778" height="338.36" style="fill:url(#Degradado_sin_nombre_13)"/><path d="M775.49,301.84l-13.09-6.37c-18,13.11-35.6,25.89-53.27,38.63l-1.4-.63,46.1-37.09c-5.93-1-9.84-1.42-13.39-2.3-3.25-.81-6.12-2.11-10.14-3.55C695,290.48,659,286,620,286.71c2.57,3,3.65,4.94,5.75,6.48,11,8.2,22.81,16.12,33.33,24.51,6.06,4.84,10.23,10.46,13.93,16.52-1.39-.41-3.27-.58-4.11-1.25-9.56-7.35-19.08-14.72-28.36-22.18-5.82-4.69-11.1-9.6-16.85-14.32-1.95-1.6-4.56-2.93-8.51-5.42-7.44,14.84-2.21,29.06-8.77,42.44-3-13.45,2.14-26.95,1.26-40.39l-2.52-.05-43.82,42.23L558,333l45.83-44.33-2.15-1.8-27.73,4.46,0-.2-32.14,4.6-74.93,9.59c1,9.74,2,18.92,3,28.11l-2.8.2q-2.64-10.75-5.27-21.53l-2.66-.19-28.15,23.24-3.7-1.36,32.92-28.41L347.72,293l22.55,40.23-3.23.9c-1.53-1.59-3.52-3.1-4.52-4.79-5.3-9.05-10.3-18.15-15.53-27.21-.89-1.53-2.51-2.91-4.36-5-13.23,12.09-17.88,25.9-31.79,36.87l-2.2-.57,29.55-39.75L198,311l11.66,22-3.08.75c-4.38-6.33-8.77-12.71-13.6-19.72-10.78,6.7-13.82,15.71-28.6,19.52,4.7-4.11,9.17-8.32,14.17-12.31,4.47-3.57,7.07-7,1.19-11L2.51,294.18v-5.1c17.11,3.63,34.45,6.44,46.76,5.58L183.69,308.1c-15.58-12.28-33.37-21.66-50.13-28.33L89.62,253.58c-5.84,2.39-10.21,4.75-15.36,6.19-9.36,2.6-14.56,9.37-27,8.82,3.77-1.95,7.35-4,11.37-5.81,4.65-2,9.85-3.74,9.63-9.21-22-.51-43.9-.13-65.77-.25v-2.54l83.18-.19c-1.15-2.12-1.36-3-2-3.7-12.75-13.81-25.47-27.62-38.5-41.36-1.55-1.64-4.91-2.71-7.64-4.14L7.75,213.65l1.2.62-6.44,5.87v-7.67l29.08-12.62-.82-2.13L2.51,193.35V190.8c8.93,0,17.77,4.39,28.2.16L2.51,162.71v-6.38c6,5.75,12,11.48,17.78,17.3,4.51,4.57,8.34,9.37,13,13.88,1.18,1.15,4.41,1.59,6.87,2.4,13.47-19.24,55.67-108,55.36-112.31,4.64-9.78,7.84-16.55,11-23.3l-3.36-1.24L54.34,72.86c-4.92,1.26-10.68,1.82-10.48,6.33l-9.37.68L32.3,83.7l-1.84-1.1c-6.52,2.55-13,5.18-19.62,7.61-2.56,1-5.54,1.51-8.33,2.25V88.62a26,26,0,0,0,4.15-.87Q48.41,71.27,90,54.66c4.79-1.93,8.73-4.54,15-7.86L11.76,33,6.82,37.81,2.51,31.18V28.62L17,29.2c2.83,1.05,4.42,2,6.33,2.3C33.62,33,44.12,34.18,54.38,35.84c13.81,2.24,27.47,4.9,41.28,7.21,2.38.4,5.21-.07,7.84-.14L49.29,3.09H56c8.76,6.2,17.55,12.4,26.26,18.63,2.93,2.09,5.54,4.34,8.46,6.44,7.2,5.18,14.49,10.35,22.53,16.07,3.84-2.71,7.09-4.7,9.73-6.9,8.72-7.33,17.38-14.69,25.73-22.16,4.35-3.89,8-8,12-12.06h6.69a63.31,63.31,0,0,1-5.76,6.12c-8.78,7.34-18,14.51-26.64,21.87-5.65,4.82-10.65,9.91-16.91,15.79,12.8,1.46,22.44,6.84,36,4.3,3.3,4.2,8.31,6.17,16.23,3l3,3.62,73.23,15.49,2.3-1.46c-3.45-4.51-6.9-9-10-13.14-2.25-4.51-3.64-8.9-6.6-12.91C222,31.91,215.13,17.42,207.46,3.09h4.45l37.26,61.66,11.13-1.49L307.7,3.09h4.45l-5.56,6.62c.69,2.14,1.26,3.95,1.83,5.76L306.29,15c-3.5,3.24-7.58,6.33-10.36,9.74-4.35,5.37-7.54,11-11.74,16.46-5.65,7.29-11.82,14.43-17.7,21.66-1.72,2.15-3.25,4.36-4.88,6.54L264,71.06c41.34-10.13,80.17-23.21,121-34.39-3.75-7-7.07-13-10.18-19.12-2.46-4.79-4.67-9.63-7-14.45h4.49c4.61,9.78,8.18,19.77,19.57,29.29,8.56-7.57,16-13.81,22.78-20.3,2.88-2.76,4.48-6,6.65-9h8.91c-1.59,2.3-2.57,4.84-4.89,6.91-6.57,5.76-13.66,11.37-20.56,17L393.26,36.5c24.1,15.54,49.45,28.8,78.05,41.83.46-2.88,1-4.47.91-6.07-.53-6.76-1.32-13.53-1.93-20.3Q468,27.53,465.86,3.08h4.46a631.36,631.36,0,0,0,9,73c1.72-1.15,1.46-2.92,2.65-3.36,10.57-3.91,13.77-10.68,19.75-16.34q11.73-11.08,22.94-22.35c10.23-10.29,20.22-20.65,30.32-31h6.68c.1,1,.94,2.26.16,2.88-5.17,4.31-11.07,8.35-16,12.77-7.13,6.42-13.75,13-20.31,19.65-4.27,4.31-7.76,8.88-12.08,13.18-10.2,10.09-20.72,20.1-32.27,31.28l107.39-7.62c9.87-4.65,11.56-10,11-16-.49-5.71.28-11.45.34-17.18.08-8.22,0-16.44,0-24.79,6.06-4.17,3-9.37,4-14.17h4.45L603,70.39l2,.38L625.72,55.4c9.3.06,8.95-7,16.35-9.2,2.72-.81,3.7-3.56,5.53-5.48,16-4.8,24.25-14.27,36.35-20.38,3.54-8.43-6.17-12.46-13.16-17.26h13.37c-2.94,4.3-1.33,6.36,8.84,10.59L706.44,3.08h4.45c-2.48,4.67-12.57,7.35-10.68,14.09,22.83.83,43,9.27,67.53,7.2l7.75,1.69v5.11l-41.67-6.49C721.9,22.83,710,20.91,695.46,19.5l33,88,16.39-7.26c6.82-.7,15.21-2.81,21.19-7.79,1.72-1.42,6.2-1.73,9.42-2.56V93.7C758.41,98.49,743,104.35,734.06,114c11.88,12.62,23.14,24.75,34.73,36.7,1.27,1.31,4.43,2,6.71,3v7.66l-47.73-47.66L712,121.84a16.37,16.37,0,0,1,1.15,1.93,17.8,17.8,0,0,1,.57,2.26c-17.26,6.18-30.19,14.08-38.82,25-12.87,2.52-19.14,9.91-28.57,17.53l104.4,17c4.75,2.88,15.27,2.52,24.71,3.91V192c-9.78-1.15-19.77-1.88-29.35-3.49-25.57-4.29-50.91-9-76.45-13.41-7.08-1.22-14.48-1.82-23.48-2.91,3.27,5.58,5.66,10,8.47,14.36,4.45,6.9,9.54,13.63,13.74,20.56,5.55,9.17,10.23,18.51,15.86,27.65,2.59,4.2,6.56,8.11,10,12.34,6.07-1.89,10.62-2.87,14.22-4.52,11.79-5.41,22.88-11.34,34.94-16.53,7.77-3.35,16.75-5.76,25.19-8.58-4,2.69-7.28,5.88-12,8-15.39,6.79-31.34,13.17-47,19.76-1.4.58-2.34,1.54-5.1,3.42,7.17.8,12.75,2.09,18.2,1.93,17.6-.51,35.16-1.55,52.72-2.38v5.1H700.53l57,34,17.94-2Zm-514.32-23L271.33,271C252.8,269,240.1,260.64,221.84,260.1l-19.63,39.44,2.71,1.15c20.67-2.55,29.66-14.46,46.21-20.37l9.7-1.31-42.25,22.4,1.46,2c4.08.19,8.37.95,12.21.49,29.35-3.56,58.62-7.33,87.88-11.14,2.14-.28,4-1.36,7.27-2.55C312.9,283.92,299,278.74,283.67,275c-2.72-.66-6.77,0-9.9.53C269.39,276.34,265.34,277.67,261.17,278.79Zm400.45-15.16c-.66.74-1,1.72-2,2.18-8.93,3.7-18,7.26-27,10.94-3.46,1.41-6.57,3.05-9.84,4.6l.76,1.89c42.28,1.77,84.48,4.07,127.18,5-17.16-10.8-33.28-21.6-55.05-30.66-.22-.34-1.24-2-3-4.75-5.17,2-8.85,3.54-12.77,4.87-5.89,2-11.94,3.85-17.92,5.76l26-13.82c-6.65-10.23-13.81-21.21-20.94-32.22l-.31.11-8.4-14.64.2,0-15.38-26.55c-9.81,32.54-19.45,65-26.11,98.49,5.72,0,10.1.77,12.54-.15,6.74-2.53,12.66-5.75,19.21-8.87ZM421.43,161.34v-14l2.25.05L426,150l11.62-16.93.93.2L465.3,95.58l-2.57-.89c-15.5,10.54-34,19.56-48.06,31L307.39,191.84l2.07,2L394.31,179c10.13.5,12.57-.49,18.66-8.9,2.17-3,5.44-5.75,8.2-8.63l-7.92,17,24,13.12.4-.23,67.7,36.67,2.72-.82c-10.84-44.82-21.68-89.65-32.77-135.61-2.31,1.58-3.49,2.09-4,2.77C456.22,115.61,441.2,136.83,426,158,425.09,159.28,423,160.24,421.43,161.34Zm17.7,97c.21-.61.06-1.58.7-1.8,12.53-4.34,25.21-8.54,37.74-12.89,8.21-2.87,18.11-4.34,25.7-9.93l-201.7-33.38c-.57,8.68,38.56,82.51,46.53,87.59,3.92-1.35,7.88-2.87,12.08-4.15,11.39-3.39,22.88-6.67,34.34-10-.75.9-1.07,2.2-2.3,2.62-13,4.42-26.24,8.7-39.38,13l.72,1.48,15.37-1.18c-.12.86-.25,1.79-.42,3,16.16,1.58,32,2.79,47.48,4.74s30.62,4.52,47.88,3.84l41.63-61.73-2.12-.75c-1.88.51-3.83,1-5.64,1.55-16.44,5.41-32.83,10.88-49.34,16.22A82.72,82.72,0,0,1,439.13,258.37Zm115.6-45.87c-3.1,2.08-5.88,4.36-9.35,6.21-9.39,5-19.06,9.85-29.35,15.12l24.31,11.58.13-.14L605,279c3-3,6.3-5.12,7.32-7.51a100.82,100.82,0,0,0,4.7-15.61c4.17-16.79,8.4-33.57,12.15-50.39.93-4.23.14-8.6.14-13.81,5.47-2.52,8.86-10.17,6.06-17.16l-9.05,2.13,10.47-7.78-140.56-72-.84.57-8.86-5.64-2.83.48c-.64,2.12-2.2,4.31-1.78,6.37,2.88,13.85,6.06,27.67,9.37,41.5,2.94,12.25,6.26,24.47,9.21,36.72,3.52,14.47,6.79,29,10.36,43.45.49,2,2,4,3.62,7.21,7-2.37,13-4.21,18.58-6.33C540.4,218.4,547.5,215.41,554.73,212.5ZM45.52,192.85l2.7,1.55L61.83,188A248,248,0,0,0,91,181c13-3.83,25.76-7.89,38.64-11.85l50.61-15.49c-2.42-3-4.57-5.13-6-7.42-6.93-11.38-13.55-22.82-20.64-34.16-.87-1.4-3.89-2.36-5.62-3.34C146.27,98,137.94,88.39,128.85,76.52,129.33,70.14,121,60,111,58.39c-.92,2.24-1.93,4.46-2.72,6.71-1.2,3.45-1.69,7-3.45,10.31-4.83,9.07-10.49,18-15.13,27.08-1.29,2.54-.19,5.49-.19,8.79-2.92,3-7.78,6.51-9.75,10.46C68,145.38,56.87,169.13,45.52,192.85ZM472.59,85.11c-7.64-4.35-13.35-7.72-19.29-10.94-17.44-9.47-34.87-19-52.58-28.27-2.92-1.53-7.28-2.16-12-3.51L371.47,72.81l3.1,2.15-6.65,4.32C361,93,347.5,105,346.85,119.46c-6.11,2.17-41.25,60.77-37.15,66.75l2.45-5.42H318ZM259.35,75.38c0,3.69-.57,7.56.12,11.36,1.44,7.7,8.21,14.68,8.15,22.77,0,5.54,4.56,11,6.33,16.66,4.18,13.09,7.79,26.24,11.87,39.33,1.79,5.72,4.17,11.38,6.33,17.2l4.09-1.58v5.72l2.2.3L382.81,42.58l-2.71-1.15-85.31,25-.06-.27ZM102,250.63l115.87,4.45L182.92,159.4l-2.34-.05-39.21,42.83c-1.19,1.84-4.12,3.24-5.86,5-11.82,12-23.36,24.08-35,36.11C98.15,245.71,96.51,248,102,250.63Zm80.39-101,2.84.13c18.59-25,45.53-47.57,62.51-73.5L124.39,51c0,3-1,5.56.21,7.68,2.81,5,6.87,9.78,10.05,14.7,4.23,6.55,8,13.19,12.15,19.75,6.43,10.08,13,20.14,19.64,30.17,3.89,5.85,7.95,11.66,11.95,17.48l1.39-.35ZM598.41,77.55l-113,7.77L484.54,87l148.34,75.71,2.61-.76-21.87-48.14-.44.06-9.1-19.45c-1.39-4.08-3.37-10-5.69-16.93ZM186.28,153.86,288.74,194l2.27-1.18-6.39-13.31c-2.65-8.38-4.42-16.9-7-25.32-1.76-5.84-5-11.51-6.9-17.36-5-15.21-9.72-30.45-14.51-45.69-.85-2.72-2.56-4.88-10-4.81-1.75,3-3.65,6.29-5.64,9.73-13.81,8.27-18.63,20-30,29.4l2.39,4.09C197.07,135.33,196.26,145.7,186.28,153.86ZM604.22,75.12C643,85.88,679,96.55,716.66,105.42c4.65-7.13-11.51-57-24.57-78.84L690.25,29l-7.86-3.55C655,41.25,631.41,58.65,604.22,75.12Zm40.35,87.58,3.77.33c22.36-17.91,51.07-32.95,73.08-52.71L603.64,78.75c4.81,10.7,8.91,19.69,12.86,28.69C621,117.68,625,128,629.83,138.18c2.82,5.92,1.55,12.94,11.69,16.62,1.12,2.91,2.08,5.4,3,7.9Zm-353.4,35.87L189.9,158.29l-2.31,1,35,93.46ZM161.38,162.69c-18.37,5.71-35.59,11.09-52.86,16.42q-26.31,8.1-52.7,16.11l.86.91-12.6,1.79,6,5C60,219.24,76,232.17,90.4,246.22c2.64-1.64,4.53-2.43,5.55-3.49,8.37-8.68,16.62-17.39,24.84-26.12,8.93-9.45,17.89-18.9,26.58-28.44,3.29-3.63,5.81-7.48,8.78-11.38l1.77.58,6-5.18ZM468.92,301.75c27.43-1.73,123.23-16.24,131.27-20.33-2.94-2.11-5.54-4.52-9.05-6.38-6.69-3.53-13.74-6.85-20.93-10.05-6.87-3.05-14.1-5.83-22.49-9.26,0,.07.16-1.12.28-2l-34.31-17.5ZM312.17,196.23c12.76,6.73,24.71,9.08,39.75,6.46l11.51,5.18,11.29.45c12.61,4,24.94,6.22,36.17,6.12,28.2,7,56.16,10,83.32,14.56l1.3-1.67-86.94-47.26ZM101.28,254c15.22,8.8,26.6,19.77,47.08,25.18.47,4.93,3.26,6.53,15.15,9.43,6.12,8.12,17.27,11.65,27.38,17.84,3.14-4.09,6-6.95,7.59-10,5.58-10.7,10.82-21.46,16-32.22.89-1.87.76-3.9,1.26-6.77l-82.51-1.73c-5.81-2.87-14.43-2.75-22.55.5Zm233,32,2.87-1.4L315.52,244c-1.48-9.53-12-21.42-19.11-35.28-2.06,2.31-3.39,3.2-3.61,4.16-2.27,9.86-4.23,19.73-6.56,29.58a116.12,116.12,0,0,1-5,17.09c-3.12,7.68-1.19,12,7.48,14.34,5.31,1.44,10.42,3.11,15.75,4.51C314.37,281,324.34,283.49,334.28,286Zm-45.15-78.35-3.22-.69c-2.3,1.73-4.6,3.5-6.83,5.26-7.1,5.59-14.21,11.18-21.25,16.8-2.14,1.73-5.62,3.45-5.8,5.28-.5,5.07-6.11,7.37-9.89,8.4l-17.92,13,50.06,13.76C278.85,248.05,285.42,228,289.13,207.65Z" style="fill:#336535"/><path d="M2.51,299.29l4.21.52L51.9,333.76l-2,1.21c-2.87-1.52-6.22-2.84-8.63-4.57C30.44,322.51,19.91,314.46,9,306.58c-1.45-1-4.3-1.46-6.51-2.17Z" style="fill:#336535"/><path d="M2.51,284l20.36-8.06-.57-.4,24.41-6.73c-6.33,6-17.3,8.76-27,12.31-5.5,2-11.43,3.63-17.17,5.43Z" style="fill:#336535"/><path d="M744.3,3.09c-7.88,5.09-18.38,1.49-27.48,2.6-.87.1-2.45-1.69-3.71-2.6Z" style="fill:#336535"/><path d="M625.84,176.9c-5.33,3.37-10.19,7-16.07,10-13.4,6.91-27.21,13.5-41,20.1-4.17,2-9,3.51-13.51,5.25,2.25-1.58,4.44-3.19,6.77-4.74a139.31,139.31,0,0,1,13.27-8c9.21-4.32,18.31-8.71,27.67-12.93C610.39,183.27,618.18,180.11,625.84,176.9Z" style="fill:#336535"/><path d="M438.8,258.55c-6.79,3.25-13.36,6.49-21.24,9.11-7.38,2.44-13.52,5.91-22.71,6,6.33-2.81,12.56-5.67,19-8.39,4.18-1.78,8.63-3.34,12.05-5.92Z" style="fill:#336535"/></svg>